<?xml version="1.0" encoding="UTF-8" standalone="no"?>
<!DOCTYPE svg PUBLIC "-//W3C//DTD SVG 1.1//EN"
 "http://www.w3.org/Graphics/SVG/1.1/DTD/svg11.dtd">
<!-- Generated by graphviz version 5.0.0 (20220707.1540)
 -->
<!-- Title: UmlClassDiagram Pages: 1 -->
<svg width="830pt" height="1066pt"
 viewBox="0.00 0.00 830.32 1065.60" xmlns="http://www.w3.org/2000/svg" xmlns:xlink="http://www.w3.org/1999/xlink">
<g id="graph0" class="graph" transform="scale(1 1) rotate(0) translate(4 1061.6)">
<title>UmlClassDiagram</title>
<polygon fill="white" stroke="transparent" points="-4,4 -4,-1061.6 826.32,-1061.6 826.32,4 -4,4"/>
<!-- 0 -->
<g id="node1" class="node">
<title>0</title>
<polygon fill="#f2f2f2" stroke="black" points="121.75,-120.7 121.75,-615.1 556.87,-615.1 556.87,-120.7 121.75,-120.7"/>
<text text-anchor="middle" x="339.31" y="-598.5" font-family="Times,serif" font-size="14.00">ERC20</text>
<text text-anchor="middle" x="339.31" y="-581.7" font-family="Times,serif" font-size="14.00">@openzeppelin/contracts/token/ERC20/ERC20.sol</text>
<polyline fill="none" stroke="black" points="121.75,-573.5 556.87,-573.5 "/>
<text text-anchor="start" x="129.75" y="-556.9" font-family="Times,serif" font-size="14.00">Private:</text>
<text text-anchor="start" x="129.75" y="-540.1" font-family="Times,serif" font-size="14.00"> &#160;&#160;_balances: mapping(address=&gt;uint256)</text>
<text text-anchor="start" x="129.75" y="-523.3" font-family="Times,serif" font-size="14.00"> &#160;&#160;_allowances: mapping(address=&gt;mapping(address=&gt;uint256))</text>
<text text-anchor="start" x="129.75" y="-506.5" font-family="Times,serif" font-size="14.00"> &#160;&#160;_totalSupply: uint256</text>
<text text-anchor="start" x="129.75" y="-489.7" font-family="Times,serif" font-size="14.00"> &#160;&#160;_name: string</text>
<text text-anchor="start" x="129.75" y="-472.9" font-family="Times,serif" font-size="14.00"> &#160;&#160;_symbol: string</text>
<polyline fill="none" stroke="black" points="121.75,-464.7 556.87,-464.7 "/>
<text text-anchor="start" x="129.75" y="-448.1" font-family="Times,serif" font-size="14.00">Internal:</text>
<text text-anchor="start" x="129.75" y="-431.3" font-family="Times,serif" font-size="14.00"> &#160;&#160;&#160;_transfer(sender: address, recipient: address, amount: uint256)</text>
<text text-anchor="start" x="129.75" y="-414.5" font-family="Times,serif" font-size="14.00"> &#160;&#160;&#160;_mint(account: address, amount: uint256)</text>
<text text-anchor="start" x="129.75" y="-397.7" font-family="Times,serif" font-size="14.00"> &#160;&#160;&#160;_burn(account: address, amount: uint256)</text>
<text text-anchor="start" x="129.75" y="-380.9" font-family="Times,serif" font-size="14.00"> &#160;&#160;&#160;_approve(owner: address, spender: address, amount: uint256)</text>
<text text-anchor="start" x="129.75" y="-364.1" font-family="Times,serif" font-size="14.00"> &#160;&#160;&#160;_beforeTokenTransfer(from: address, to: address, amount: uint256)</text>
<text text-anchor="start" x="129.75" y="-347.3" font-family="Times,serif" font-size="14.00"> &#160;&#160;&#160;_afterTokenTransfer(from: address, to: address, amount: uint256)</text>
<text text-anchor="start" x="129.75" y="-330.5" font-family="Times,serif" font-size="14.00">Public:</text>
<text text-anchor="start" x="129.75" y="-313.7" font-family="Times,serif" font-size="14.00"> &#160;&#160;&#160;constructor(name_: string, symbol_: string)</text>
<text text-anchor="start" x="129.75" y="-296.9" font-family="Times,serif" font-size="14.00"> &#160;&#160;&#160;name(): string</text>
<text text-anchor="start" x="129.75" y="-280.1" font-family="Times,serif" font-size="14.00"> &#160;&#160;&#160;symbol(): string</text>
<text text-anchor="start" x="129.75" y="-263.3" font-family="Times,serif" font-size="14.00"> &#160;&#160;&#160;decimals(): uint8</text>
<text text-anchor="start" x="129.75" y="-246.5" font-family="Times,serif" font-size="14.00"> &#160;&#160;&#160;totalSupply(): uint256</text>
<text text-anchor="start" x="129.75" y="-229.7" font-family="Times,serif" font-size="14.00"> &#160;&#160;&#160;balanceOf(account: address): uint256</text>
<text text-anchor="start" x="129.75" y="-212.9" font-family="Times,serif" font-size="14.00"> &#160;&#160;&#160;transfer(recipient: address, amount: uint256): bool</text>
<text text-anchor="start" x="129.75" y="-196.1" font-family="Times,serif" font-size="14.00"> &#160;&#160;&#160;allowance(owner: address, spender: address): uint256</text>
<text text-anchor="start" x="129.75" y="-179.3" font-family="Times,serif" font-size="14.00"> &#160;&#160;&#160;approve(spender: address, amount: uint256): bool</text>
<text text-anchor="start" x="129.75" y="-162.5" font-family="Times,serif" font-size="14.00"> &#160;&#160;&#160;transferFrom(sender: address, recipient: address, amount: uint256): bool</text>
<text text-anchor="start" x="129.75" y="-145.7" font-family="Times,serif" font-size="14.00"> &#160;&#160;&#160;increaseAllowance(spender: address, addedValue: uint256): bool</text>
<text text-anchor="start" x="129.75" y="-128.9" font-family="Times,serif" font-size="14.00"> &#160;&#160;&#160;decreaseAllowance(spender: address, subtractedValue: uint256): bool</text>
</g>
<!-- 2 -->
<g id="node2" class="node">
<title>2</title>
<polygon fill="#f2f2f2" stroke="black" points="0,-822.7 0,-1057.1 438.62,-1057.1 438.62,-822.7 0,-822.7"/>
<text text-anchor="middle" x="219.31" y="-1040.5" font-family="Times,serif" font-size="14.00">&lt;&lt;Interface&gt;&gt;</text>
<text text-anchor="middle" x="219.31" y="-1023.7" font-family="Times,serif" font-size="14.00">IERC20</text>
<text text-anchor="middle" x="219.31" y="-1006.9" font-family="Times,serif" font-size="14.00">@openzeppelin/contracts/token/ERC20/IERC20.sol</text>
<polyline fill="none" stroke="black" points="0,-998.7 438.62,-998.7 "/>
<text text-anchor="start" x="8" y="-982.1" font-family="Times,serif" font-size="14.00">External:</text>
<text text-anchor="start" x="8" y="-965.3" font-family="Times,serif" font-size="14.00"> &#160;&#160;&#160;&#160;totalSupply(): uint256</text>
<text text-anchor="start" x="8" y="-948.5" font-family="Times,serif" font-size="14.00"> &#160;&#160;&#160;&#160;balanceOf(account: address): uint256</text>
<text text-anchor="start" x="8" y="-931.7" font-family="Times,serif" font-size="14.00"> &#160;&#160;&#160;&#160;transfer(recipient: address, amount: uint256): bool</text>
<text text-anchor="start" x="8" y="-914.9" font-family="Times,serif" font-size="14.00"> &#160;&#160;&#160;&#160;allowance(owner: address, spender: address): uint256</text>
<text text-anchor="start" x="8" y="-898.1" font-family="Times,serif" font-size="14.00"> &#160;&#160;&#160;&#160;approve(spender: address, amount: uint256): bool</text>
<text text-anchor="start" x="8" y="-881.3" font-family="Times,serif" font-size="14.00"> &#160;&#160;&#160;&#160;transferFrom(sender: address, recipient: address, amount: uint256): bool</text>
<text text-anchor="start" x="8" y="-864.5" font-family="Times,serif" font-size="14.00">Public:</text>
<text text-anchor="start" x="8" y="-847.7" font-family="Times,serif" font-size="14.00"> &#160;&#160;&#160;&lt;&lt;event&gt;&gt; Transfer(from: address, to: address, value: uint256)</text>
<text text-anchor="start" x="8" y="-830.9" font-family="Times,serif" font-size="14.00"> &#160;&#160;&#160;&lt;&lt;event&gt;&gt; Approval(owner: address, spender: address, value: uint256)</text>
</g>
<!-- 0&#45;&gt;2 -->
<g id="edge2" class="edge">
<title>0&#45;&gt;2</title>
<path fill="none" stroke="black" stroke-dasharray="5,2" d="M134.02,-615.41C128.45,-627.31 123.5,-639.39 119.31,-651.6 99.89,-708.18 102.21,-728.87 119.31,-786.2 120.17,-789.08 121.1,-791.96 122.1,-794.83"/>
<polygon fill="none" stroke="black" points="112.48,-799.05 133.82,-822.6 131.83,-790.88 112.48,-799.05"/>
</g>
<!-- 1 -->
<g id="node3" class="node">
<title>1</title>
<polygon fill="#f2f2f2" stroke="black" points="127.93,-652.1 127.93,-785.7 550.69,-785.7 550.69,-652.1 127.93,-652.1"/>
<text text-anchor="middle" x="339.31" y="-769.1" font-family="Times,serif" font-size="14.00">&lt;&lt;Interface&gt;&gt;</text>
<text text-anchor="middle" x="339.31" y="-752.3" font-family="Times,serif" font-size="14.00">IERC20Metadata</text>
<text text-anchor="middle" x="339.31" y="-735.5" font-family="Times,serif" font-size="14.00">@openzeppelin/contracts/token/ERC20/extensions/IERC20Metadata.sol</text>
<polyline fill="none" stroke="black" points="127.93,-727.3 550.69,-727.3 "/>
<text text-anchor="start" x="135.93" y="-710.7" font-family="Times,serif" font-size="14.00">External:</text>
<text text-anchor="start" x="135.93" y="-693.9" font-family="Times,serif" font-size="14.00"> &#160;&#160;&#160;&#160;name(): string</text>
<text text-anchor="start" x="135.93" y="-677.1" font-family="Times,serif" font-size="14.00"> &#160;&#160;&#160;&#160;symbol(): string</text>
<text text-anchor="start" x="135.93" y="-660.3" font-family="Times,serif" font-size="14.00"> &#160;&#160;&#160;&#160;decimals(): uint8</text>
</g>
<!-- 0&#45;&gt;1 -->
<g id="edge3" class="edge">
<title>0&#45;&gt;1</title>
<path fill="none" stroke="black" stroke-dasharray="5,2" d="M339.31,-615.55C339.31,-617.67 339.31,-619.77 339.31,-621.85"/>
<polygon fill="none" stroke="black" points="328.81,-622.02 339.31,-652.02 349.81,-622.02 328.81,-622.02"/>
</g>
<!-- 3 -->
<g id="node4" class="node">
<title>3</title>
<polygon fill="#f2f2f2" stroke="black" points="568.3,-660.5 568.3,-777.3 822.32,-777.3 822.32,-660.5 568.3,-660.5"/>
<text text-anchor="middle" x="695.31" y="-760.7" font-family="Times,serif" font-size="14.00">&lt;&lt;Abstract&gt;&gt;</text>
<text text-anchor="middle" x="695.31" y="-743.9" font-family="Times,serif" font-size="14.00">Context</text>
<text text-anchor="middle" x="695.31" y="-727.1" font-family="Times,serif" font-size="14.00">@openzeppelin/contracts/utils/Context.sol</text>
<polyline fill="none" stroke="black" points="568.3,-718.9 822.32,-718.9 "/>
<text text-anchor="start" x="576.3" y="-702.3" font-family="Times,serif" font-size="14.00">Internal:</text>
<text text-anchor="start" x="576.3" y="-685.5" font-family="Times,serif" font-size="14.00"> &#160;&#160;&#160;_msgSender(): address</text>
<text text-anchor="start" x="576.3" y="-668.7" font-family="Times,serif" font-size="14.00"> &#160;&#160;&#160;_msgData(): bytes</text>
</g>
<!-- 0&#45;&gt;3 -->
<g id="edge1" class="edge">
<title>0&#45;&gt;3</title>
<path fill="none" stroke="black" d="M556.91,-582.22C577.44,-602.35 597.23,-621.75 615.11,-639.28"/>
<polygon fill="none" stroke="black" points="607.88,-646.89 636.65,-660.39 622.58,-631.89 607.88,-646.89"/>
</g>
<!-- 1&#45;&gt;2 -->
<g id="edge4" class="edge">
<title>1&#45;&gt;2</title>
<path fill="none" stroke="black" stroke-dasharray="5,2" d="M303.14,-785.9C301.36,-789.16 299.54,-792.48 297.69,-795.85"/>
<polygon fill="none" stroke="black" points="288.39,-790.98 283.18,-822.34 306.8,-801.08 288.39,-790.98"/>
</g>
<!-- 4 -->
<g id="node5" class="node">
<title>4</title>
<polygon fill="#f2f2f2" stroke="black" points="267.74,-0.5 267.74,-83.7 410.88,-83.7 410.88,-0.5 267.74,-0.5"/>
<text text-anchor="middle" x="339.31" y="-67.1" font-family="Times,serif" font-size="14.00">MyErc20</text>
<text text-anchor="middle" x="339.31" y="-50.3" font-family="Times,serif" font-size="14.00">contracts/MyErc20.sol</text>
<polyline fill="none" stroke="black" points="267.74,-42.1 410.88,-42.1 "/>
<text text-anchor="start" x="275.74" y="-25.5" font-family="Times,serif" font-size="14.00">Public:</text>
<text text-anchor="start" x="275.74" y="-8.7" font-family="Times,serif" font-size="14.00"> &#160;&#160;&#160;constructor()</text>
</g>
<!-- 4&#45;&gt;0 -->
<g id="edge5" class="edge">
<title>4&#45;&gt;0</title>
<path fill="none" stroke="black" d="M339.31,-83.78C339.31,-85.97 339.31,-88.23 339.31,-90.56"/>
<polygon fill="none" stroke="black" points="328.81,-90.6 339.31,-120.6 349.81,-90.6 328.81,-90.6"/>
</g>
</g>
</svg>
